<?xml version="1.0" encoding="utf-8"?>
<!-- Generator: Adobe Illustrator 18.0.0, SVG Export Plug-In . SVG Version: 6.00 Build 0)  -->
<!DOCTYPE svg PUBLIC "-//W3C//DTD SVG 1.1//EN" "http://www.w3.org/Graphics/SVG/1.1/DTD/svg11.dtd">
<svg version="1.1" xmlns="http://www.w3.org/2000/svg" xmlns:xlink="http://www.w3.org/1999/xlink" x="0px" y="0px"
	 viewBox="0 0 20 20" enable-background="new 0 0 20 20" xml:space="preserve">
<g id="Layer_1" display="none">
</g>
<g id="Layer_2">
	<g>
		<path d="M19.5,11.9c0.3,0,0.5-0.2,0.5-0.5V8.6c0-0.3-0.2-0.5-0.5-0.5h-1.1c-0.3,0-0.6-0.2-0.7-0.5l-0.6-1.4
			C17,6,17.1,5.6,17.3,5.4l0.8-0.8c0.2-0.2,0.2-0.5,0-0.7l-2-2c-0.2-0.2-0.5-0.2-0.7,0l-0.8,0.8C14.4,2.9,14,3,13.8,2.9l-1.4-0.6
			c-0.3-0.1-0.5-0.4-0.5-0.7V0.5c0-0.3-0.2-0.5-0.5-0.5H8.6C8.3,0,8.1,0.2,8.1,0.5v1.1c0,0.3-0.2,0.6-0.5,0.7L6.2,2.9
			C6,3,5.6,2.9,5.4,2.7L4.6,1.9c-0.2-0.2-0.5-0.2-0.7,0l-2,2c-0.2,0.2-0.2,0.5,0,0.7l0.8,0.8C2.9,5.6,3,6,2.9,6.2L2.3,7.6
			C2.2,7.9,1.9,8.1,1.6,8.1H0.5C0.2,8.1,0,8.3,0,8.6v2.8c0,0.3,0.2,0.5,0.5,0.5h1.1c0.3,0,0.6,0.2,0.7,0.5l0.6,1.4
			C3,14,2.9,14.4,2.7,14.6l-0.8,0.8c-0.2,0.2-0.2,0.5,0,0.7l2,2c0.2,0.2,0.5,0.2,0.7,0l0.8-0.8C5.6,17.1,6,17,6.2,17.1l1.4,0.6
			c0.3,0.1,0.5,0.4,0.5,0.7v1.1c0,0.3,0.2,0.5,0.5,0.5h2.8c0.3,0,0.5-0.2,0.5-0.5v-1.1c0-0.3,0.2-0.6,0.5-0.7l1.4-0.6
			c0.2-0.1,0.6-0.1,0.8,0.1l0.8,0.8c0.2,0.2,0.5,0.2,0.7,0l2-2c0.2-0.2,0.2-0.5,0-0.7l-0.8-0.8c-0.2-0.2-0.3-0.6-0.1-0.8l0.6-1.4
			c0.1-0.3,0.4-0.5,0.7-0.5H19.5z M16.2,13.5C16,13.8,16,13.9,16,13.9c-0.2,0.2-0.1,0.6,0,0.7c0.2,0.2,0.5,0.5,0.7,0.7l0,0
			c0.2,0.2,0.2,0.5,0,0.7l-0.6,0.6c-0.2,0.2-0.5,0.2-0.7,0l0,0c-0.2-0.2-0.5-0.5-0.7-0.7c-0.2-0.2-0.5-0.3-0.6-0.2
			c-0.1,0.1-0.5,0.3-0.5,0.3c0,0-0.2,0.1-0.4,0.2l-0.7,0.3c-0.3,0.1-0.5,0.2-0.5,0.2c0,0-0.1,0-0.3,0.1S11,17.3,11,17.6s0,0.7,0,1v0
			c0,0.3-0.2,0.5-0.5,0.5H9.5C9.3,19,9,18.8,9,18.5v0c0-0.3,0-0.7,0-1S8.9,17,8.7,17c-0.2,0-0.6-0.1-0.6-0.1c0,0-0.2-0.1-0.5-0.2
			c0,0-0.6-0.2-1.1-0.5C6.2,16,6.1,16,6.1,16c-0.2-0.2-0.6-0.1-0.7,0s-0.5,0.5-0.7,0.7l0,0c-0.2,0.2-0.5,0.2-0.7,0l-0.6-0.6
			c-0.2-0.2-0.2-0.5,0-0.7l0,0c0.2-0.2,0.5-0.5,0.7-0.7s0.3-0.5,0.2-0.6s-0.3-0.5-0.3-0.5c0,0-0.1-0.2-0.2-0.4c0,0-0.3-0.6-0.4-1.2
			C3,11.6,3,11.4,3,11.4C3,11.2,2.7,11,2.4,11s-0.7,0-1,0h0C1.2,11,1,10.7,1,10.5V9.5C1,9.3,1.2,9,1.5,9h0c0.3,0,0.7,0,1,0
			S3,8.8,3,8.6c0,0,0-0.1,0.1-0.5C3.3,7.5,3.5,7,3.8,6.5C4,6.2,4,6.1,4,6.1c0.2-0.2,0.1-0.6,0-0.7C3.8,5.1,3.5,4.8,3.3,4.6l0,0
			c-0.2-0.2-0.2-0.5,0-0.7l0.6-0.6c0.2-0.2,0.5-0.2,0.7,0l0,0C4.8,3.5,5.1,3.8,5.3,4s0.5,0.3,0.6,0.2C6.1,4,6.5,3.8,6.5,3.8
			c0,0,0.2-0.1,0.4-0.2l0.7-0.3c0.3-0.1,0.5-0.2,0.5-0.2s0.1,0,0.3-0.1C8.6,3,9,2.7,9,2.4s0-0.7,0-1v0C9,1.2,9.3,1,9.5,1h0.9
			C10.7,1,11,1.2,11,1.5v0c0,0.3,0,0.7,0,1S11.1,3,11.3,3c0.2,0,0.6,0.1,0.6,0.1c0,0,0.2,0.1,0.5,0.2l0.7,0.3
			c0.2,0.1,0.4,0.2,0.4,0.2c0,0,0.1,0.1,0.3,0.2c0.2,0.1,0.7,0.2,0.9,0c0.2-0.2,0.5-0.5,0.7-0.7l0,0c0.2-0.2,0.5-0.2,0.7,0l0.6,0.6
			c0.2,0.2,0.2,0.5,0,0.7l0,0c-0.2,0.2-0.5,0.5-0.7,0.7c-0.2,0.2-0.2,0.5,0,0.7c0,0,0.1,0.1,0.2,0.4c0.3,0.5,0.5,1,0.7,1.6
			C17,8.4,17,8.6,17,8.6C17,8.8,17.3,9,17.6,9c0.3,0,0.7,0,1,0h0C18.8,9,19,9.3,19,9.5v0.9c0,0.3-0.2,0.5-0.5,0.5h0
			c-0.3,0-0.7,0-1,0c-0.3,0-0.5,0.2-0.6,0.5c0,0,0,0.1-0.1,0.5C16.7,12.5,16.5,13,16.2,13.5z"/>
	</g>
	<g>
		<path d="M10,7c-1.6,0-3,1.3-3,3s1.3,3,3,3c1.6,0,3-1.3,3-3S11.6,7,10,7z M10,12c-1.1,0-2-0.9-2-2s0.9-2,2-2s2,0.9,2,2
			S11.1,12,10,12z"/>
	</g>
</g>
</svg>
