<?xml version="1.0" encoding="utf-8"?>
<!-- Generator: Adobe Illustrator 19.0.0, SVG Export Plug-In . SVG Version: 6.00 Build 0)  -->
<svg version="1.1" id="Layer_1" xmlns="http://www.w3.org/2000/svg" xmlns:xlink="http://www.w3.org/1999/xlink" x="0px" y="0px"
	 viewBox="0 0 16 17" style="enable-background:new 0 0 16 17;" xml:space="preserve">
<style type="text/css">
	.st0{fill:#4F5493;}
	.st1{fill:none;stroke:#4F5493;stroke-miterlimit:10;}
</style>
<g id="XMLID_355_">
	<path id="XMLID_14_" class="st0" d="M14.8,2c0,0,0.2,0.1,0.2,0.3v13.3c0,0.2-0.1,0.3-0.2,0.3H1.2c0,0-0.2-0.1-0.2-0.3V2.3
		C1,2.1,1.1,2,1.2,2H14.8 M14.8,1H1.2C0.5,1,0,1.6,0,2.3v13.3C0,16.4,0.5,17,1.2,17h13.7c0.6,0,1.2-0.6,1.2-1.3V2.3
		C16,1.6,15.5,1,14.8,1L14.8,1z M16,15.7v0.2V15.7L16,15.7z"/>
</g>
<line id="XMLID_352_" class="st1" x1="16" y1="5.5" x2="0" y2="5.5"/>
<path id="XMLID_39_" class="st0" d="M4.5,10h-1C3.2,10,3,9.8,3,9.5v-1C3,8.2,3.2,8,3.5,8h1C4.8,8,5,8.2,5,8.5v1C5,9.8,4.8,10,4.5,10
	z"/>
<path id="XMLID_341_" class="st0" d="M8.5,10h-1C7.2,10,7,9.8,7,9.5v-1C7,8.2,7.2,8,7.5,8h1C8.8,8,9,8.2,9,8.5v1
	C9,9.8,8.8,10,8.5,10z"/>
<path id="XMLID_342_" class="st0" d="M12.5,10h-1C11.2,10,11,9.8,11,9.5v-1C11,8.2,11.2,8,11.5,8h1C12.8,8,13,8.2,13,8.5v1
	C13,9.8,12.8,10,12.5,10z"/>
<g id="XMLID_231_">
	<path id="XMLID_443_" class="st0" d="M4.5,0h-1C3.2,0,3,0.2,3,0.5v1v1C3,2.8,3.2,3,3.5,3h1C4.8,3,5,2.8,5,2.5v-1v-1
		C5,0.2,4.8,0,4.5,0z"/>
	<path id="XMLID_447_" class="st0" d="M12.5,0h-1C11.2,0,11,0.2,11,0.5v1v1C11,2.8,11.2,3,11.5,3h1C12.8,3,13,2.8,13,2.5v-1v-1
		C13,0.2,12.8,0,12.5,0z"/>
</g>
<path id="XMLID_364_" class="st0" d="M8.5,14h-1C7.2,14,7,13.8,7,13.5v-1C7,12.2,7.2,12,7.5,12h1C8.8,12,9,12.2,9,12.5v1
	C9,13.8,8.8,14,8.5,14z"/>
<path id="XMLID_365_" class="st0" d="M4.5,14h-1C3.2,14,3,13.8,3,13.5v-1C3,12.2,3.2,12,3.5,12h1C4.8,12,5,12.2,5,12.5v1
	C5,13.8,4.8,14,4.5,14z"/>
</svg>
